# xmcd
#
# Track frame offsets:
#	150
#	13377
#	26771
#	38467
#	50866
#	63330
#	75172
#	86031
#	97190
#	110976
#	123613
#	136732
#
# Disc length: 1974 seconds
#
# Revision: 2
# Processed by: cddbd v1.4PL0 Copyright (c) Steve Scherf et al.
# Submitted via: audiograbber 1.80
#
DISCID=a407b40c
DTITLE=Williams, Hank Sr - All-Time Greatest Hits - Vol 2
DYEAR=1900
DGENRE=
TTITLE0=Hey, Good Lookin'
TTITLE1=You're Gonna Change (Or I'm Gonna Leave)
TTITLE2=Kaw-Liga
TTITLE3=Move It On Over
TTITLE4=They'll Never Take Her Love From Me
TTITLE5=Settin' The Woods On Fire
TTITLE6=I Can't Help It (If I'm Still In Love With You)
TTITLE7=(I Heard That) Lonesome Whistle
TTITLE8=Ramblin' Man
TTITLE9=Honky Tonkin'
TTITLE10=Jambalaya (On The Bayou)
TTITLE11=Window Shopping
EXTD=
EXTT0=
EXTT1=
EXTT2=
EXTT3=
EXTT4=
EXTT5=
EXTT6=
EXTT7=
EXTT8=
EXTT9=
EXTT10=
EXTT11=
PLAYORDER=
